<svg width="20" height="18" viewBox="0 0 20 18" fill="none" xmlns="http://www.w3.org/2000/svg">
<g id="Buy 2">
<g id="Vector">
<path d="M1.43967 0.515053C1.35595 0.180183 1.01661 -0.0234095 0.68174 0.0603162C0.34687 0.144042 0.143278 0.483381 0.227003 0.81825L1.10354 4.32406L1.91921 7.72738C2.26604 9.17453 2.53904 10.3136 2.86299 11.1985C3.1953 12.1062 3.6028 12.8109 4.25661 13.3513C4.31304 13.3979 4.37052 13.4433 4.42902 13.4873C5.10691 13.9971 5.88716 14.2292 6.84733 14.3408C7.78335 14.4496 8.95465 14.4496 10.4427 14.4495H10.9374C12.2249 14.4495 13.2384 14.4496 14.0549 14.367C14.8913 14.2824 15.5794 14.1069 16.1987 13.7192C16.4924 13.5353 16.7653 13.32 17.0126 13.0772C17.5009 12.5979 17.8226 12.0159 18.0892 11.2916H14.1668C13.8216 11.2916 13.5418 11.0118 13.5418 10.6666C13.5418 10.3215 13.8216 10.0416 14.1668 10.0416H18.475C18.5768 9.66289 18.6799 9.24734 18.7903 8.79165L11.6668 8.79165C11.3216 8.79165 11.0418 8.51183 11.0418 8.16665C11.0418 7.82147 11.3216 7.54165 11.6668 7.54165L19.0896 7.54165C19.2133 7.0139 19.3104 6.56121 19.3543 6.1771C19.4141 5.65394 19.3897 5.1558 19.1285 4.70098C19.0168 4.50645 18.8772 4.32937 18.714 4.17542C18.3326 3.81545 17.8539 3.67562 17.3312 3.61184C16.8276 3.55039 16.1877 3.5504 15.4114 3.55042L2.19859 3.55042L1.43967 0.515053Z" fill="#2D264B"/>
<path d="M7.85097 17.3333C8.33543 17.3333 8.72816 16.9406 8.72816 16.4561C8.72816 15.9717 8.33543 15.5789 7.85097 15.5789C7.36651 15.5789 6.97377 15.9717 6.97377 16.4561C6.97377 16.9406 7.36651 17.3333 7.85097 17.3333Z" fill="#2D264B"/>
<path d="M13.1141 17.3333C13.5986 17.3333 13.9913 16.9406 13.9913 16.4561C13.9913 15.9717 13.5986 15.5789 13.1141 15.5789C12.6297 15.5789 12.2369 15.9717 12.2369 16.4561C12.2369 16.9406 12.6297 17.3333 13.1141 17.3333Z" fill="#2D264B"/>
</g>
</g>
</svg>
