<svg width="18" height="18" viewBox="0 0 18 18" fill="none" xmlns="http://www.w3.org/2000/svg">
<g id="Dollar Square">
<g id="Vector">
<path d="M8.20611 4.82786C8.26159 4.79582 8.31798 4.76703 8.37505 4.74141L8.37508 8.09999C7.01918 7.50128 6.89217 5.58646 8.20611 4.82786Z" fill="#2D264B"/>
<path d="M9.62506 13.2586L9.62508 9.90001C10.981 10.4987 11.108 12.4135 9.79406 13.1721C9.73856 13.2042 9.68216 13.233 9.62506 13.2586Z" fill="#2D264B"/>
<path fill-rule="evenodd" clip-rule="evenodd" d="M8.96229 0.875H9.03771C10.5682 0.874993 11.7678 0.874988 12.7196 0.978107C13.6909 1.08334 14.4779 1.30194 15.1498 1.79013C15.5566 2.08567 15.9143 2.44341 16.2099 2.8502C16.6981 3.52213 16.9167 4.30912 17.0219 5.2804C17.125 6.23216 17.125 7.4318 17.125 8.96221V9.03773C17.125 10.5681 17.125 11.7678 17.0219 12.7196C16.9167 13.6909 16.6981 14.4779 16.2099 15.1498C15.9143 15.5566 15.5566 15.9143 15.1498 16.2099C14.4779 16.6981 13.6909 16.9167 12.7196 17.0219C11.7678 17.125 10.5682 17.125 9.03779 17.125H8.96227C7.43187 17.125 6.23216 17.125 5.2804 17.0219C4.30912 16.9167 3.52213 16.6981 2.8502 16.2099C2.44341 15.9143 2.08567 15.5566 1.79013 15.1498C1.30194 14.4779 1.08334 13.6909 0.978107 12.7196C0.874988 11.7678 0.874993 10.5682 0.875 9.03771V8.96229C0.874993 7.43185 0.874988 6.23218 0.978107 5.2804C1.08334 4.30912 1.30194 3.52213 1.79013 2.8502C2.08568 2.44341 2.44341 2.08568 2.8502 1.79013C3.52213 1.30194 4.30912 1.08334 5.2804 0.978107C6.23218 0.874988 7.43185 0.874993 8.96229 0.875ZM9.62504 3.16667C9.62504 2.82149 9.34522 2.54167 9.00004 2.54167C8.65487 2.54167 8.37505 2.82149 8.37505 3.16667V3.42339C8.10274 3.4917 7.83553 3.59844 7.58111 3.74533C5.31289 5.05488 5.60118 8.41576 8.05929 9.3199L8.37509 9.43605L8.37506 13.3495C7.92931 13.2238 7.53105 12.9308 7.28171 12.499L6.96874 11.9569C6.79615 11.6579 6.4139 11.5555 6.11497 11.7281C5.81604 11.9007 5.71361 12.2829 5.8862 12.5819L6.19917 13.124C6.68123 13.9589 7.49392 14.483 8.37505 14.6279L8.37505 14.8333C8.37504 15.1785 8.65486 15.4583 9.00004 15.4583C9.34522 15.4583 9.62504 15.1785 9.62505 14.8333L9.62505 14.5766C9.89738 14.5083 10.1646 14.4016 10.4191 14.2547C12.6873 12.9451 12.399 9.58424 9.94088 8.6801L9.62508 8.56395L9.62505 4.65044C10.0708 4.77615 10.4691 5.06915 10.7185 5.50104L11.0314 6.04312C11.204 6.34205 11.5863 6.44448 11.8852 6.27189C12.1841 6.0993 12.2866 5.71705 12.114 5.41812L11.801 4.87604C11.3189 4.04107 10.5062 3.51694 9.62504 3.37208V3.16667Z" fill="#2D264B"/>
</g>
</g>
</svg>
