<svg width="16" height="18" viewBox="0 0 16 18" fill="none" xmlns="http://www.w3.org/2000/svg">
<g id="Lock 1">
<g id="Vector">
<path d="M6.95833 11.5C6.95833 10.9247 7.4247 10.4584 8 10.4584C8.5753 10.4584 9.04167 10.9247 9.04167 11.5C9.04167 12.0753 8.5753 12.5417 8 12.5417C7.4247 12.5417 6.95833 12.0753 6.95833 11.5Z" fill="#2D264B"/>
<path fill-rule="evenodd" clip-rule="evenodd" d="M8 0.041687C5.35364 0.041687 3.20833 2.18699 3.20833 4.83335V5.76145C3.20833 5.81712 3.21561 5.87109 3.22927 5.92247C2.03252 6.36221 1.09972 7.32767 0.703931 8.54578C0.5 9.17342 0.5 9.94895 0.5 11.5C0.5 13.0511 0.5 13.8266 0.703931 14.4543C1.11609 15.7227 2.1106 16.7173 3.3791 17.1294C4.00673 17.3334 4.78226 17.3334 6.33332 17.3334H9.66667C11.2177 17.3334 11.9933 17.3334 12.6209 17.1294C13.8894 16.7173 14.8839 15.7227 15.2961 14.4543C15.5 13.8266 15.5 13.0511 15.5 11.5C15.5 9.94895 15.5 9.17342 15.2961 8.54578C14.9003 7.32767 13.9675 6.36221 12.7707 5.92247C12.7844 5.87109 12.7917 5.81712 12.7917 5.76145V4.83335C12.7917 2.18699 10.6464 0.041687 8 0.041687ZM9.66667 5.66669C10.4711 5.66669 11.0669 5.66669 11.5417 5.69513V4.83335C11.5417 2.87735 9.95601 1.29169 8 1.29169C6.04399 1.29169 4.45833 2.87735 4.45833 4.83335V5.69513C4.93311 5.66669 5.52893 5.66669 6.33333 5.66669H9.66667ZM5.70833 11.5C5.70833 10.2344 6.73435 9.20835 8 9.20835C9.26565 9.20835 10.2917 10.2344 10.2917 11.5C10.2917 12.7657 9.26565 13.7917 8 13.7917C6.73435 13.7917 5.70833 12.7657 5.70833 11.5Z" fill="#2D264B"/>
</g>
</g>
</svg>
