<svg width="19" height="19" viewBox="0 0 19 19" fill="none" xmlns="http://www.w3.org/2000/svg">
<g id="whatsapp">
<path id="border" fill-rule="evenodd" clip-rule="evenodd" d="M9.33698 17.9533C13.573 17.9533 17.007 14.5193 17.007 10.2833C17.007 6.04725 13.573 2.61328 9.33698 2.61328C5.10096 2.61328 1.66699 6.04725 1.66699 10.2833C1.66699 11.6589 2.02912 12.9499 2.66325 14.0662L1.66699 17.9533L5.67449 17.024C6.76281 17.6166 8.01058 17.9533 9.33698 17.9533ZM9.33698 16.7733C12.9213 16.7733 15.827 13.8676 15.827 10.2833C15.827 6.69895 12.9213 3.79328 9.33698 3.79328C5.75266 3.79328 2.84699 6.69895 2.84699 10.2833C2.84699 11.6672 3.28016 12.9499 4.0183 14.0033L3.43699 16.1833L5.65535 15.6287C6.70144 16.3505 7.96985 16.7733 9.33698 16.7733Z" fill="#BFC8D0"/>
<path id="bg" d="M15.9112 9.73541C15.9112 13.3663 12.9678 16.3097 9.33697 16.3097C7.95208 16.3097 6.66721 15.8815 5.60753 15.1502L3.36036 15.712L3.94922 13.5038C3.20149 12.4367 2.7627 11.1373 2.7627 9.73541C2.7627 6.10454 5.7061 3.16113 9.33697 3.16113C12.9678 3.16113 15.9112 6.10454 15.9112 9.73541Z" fill="url(#paint0_linear_14_177)"/>
<path id="border_2" fill-rule="evenodd" clip-rule="evenodd" d="M9.33698 17.4054C13.573 17.4054 17.007 13.9714 17.007 9.73542C17.007 5.4994 13.573 2.06543 9.33698 2.06543C5.10096 2.06543 1.66699 5.4994 1.66699 9.73542C1.66699 11.111 2.02912 12.402 2.66325 13.5184L1.66699 17.4054L5.67449 16.4761C6.76281 17.0687 8.01058 17.4054 9.33698 17.4054ZM9.33698 16.2254C12.9213 16.2254 15.827 13.3197 15.827 9.73542C15.827 6.1511 12.9213 3.24543 9.33698 3.24543C5.75266 3.24543 2.84699 6.1511 2.84699 9.73542C2.84699 11.1193 3.28016 12.4021 4.0183 13.4555L3.43699 15.6354L5.65535 15.0808C6.70144 15.8027 7.96985 16.2254 9.33698 16.2254Z" fill="white"/>
<path id="phone" d="M7.41949 6.17431C7.23713 5.80803 6.95738 5.84046 6.67477 5.84046C6.16969 5.84046 5.38214 6.44544 5.38214 7.57138C5.38214 8.49415 5.78876 9.50426 7.15893 11.0153C8.48125 12.4736 10.2187 13.2279 11.6611 13.2022C13.1035 13.1766 13.4003 11.9353 13.4003 11.5161C13.4003 11.3304 13.285 11.2377 13.2055 11.2125C12.714 10.9766 11.8074 10.537 11.6012 10.4544C11.3949 10.3719 11.2872 10.4836 11.2202 10.5443C11.0332 10.7226 10.6624 11.248 10.5354 11.3661C10.4085 11.4843 10.2192 11.4245 10.1404 11.3798C9.85056 11.2635 9.06465 10.9139 8.4382 10.3066C7.66346 9.55562 7.61799 9.29723 7.47202 9.06723C7.35525 8.88322 7.44094 8.77032 7.4837 8.72099C7.65062 8.52838 7.88111 8.23102 7.98447 8.08325C8.08784 7.93548 8.00578 7.71112 7.95654 7.57139C7.74478 6.97042 7.56538 6.46734 7.41949 6.17431Z" fill="white"/>
</g>
<defs>
<linearGradient id="paint0_linear_14_177" x1="15.0895" y1="4.8047" x2="2.76269" y2="16.3097" gradientUnits="userSpaceOnUse">
<stop stop-color="#5BD066"/>
<stop offset="1" stop-color="#27B43E"/>
</linearGradient>
</defs>
</svg>
