<svg width="33" height="32" viewBox="0 0 33 32" fill="none" xmlns="http://www.w3.org/2000/svg">
<g id="whatsapp">
<path id="border" fill-rule="evenodd" clip-rule="evenodd" d="M16.5 31C24.232 31 30.5 24.732 30.5 17C30.5 9.26801 24.232 3 16.5 3C8.76801 3 2.5 9.26801 2.5 17C2.5 19.5109 3.161 21.8674 4.31847 23.905L2.5 31L9.81486 29.3038C11.8014 30.3854 14.0789 31 16.5 31ZM16.5 28.8462C23.0425 28.8462 28.3462 23.5425 28.3462 17C28.3462 10.4576 23.0425 5.15385 16.5 5.15385C9.95755 5.15385 4.65385 10.4576 4.65385 17C4.65385 19.5261 5.4445 21.8675 6.79184 23.7902L5.73077 27.7692L9.77993 26.7569C11.6894 28.0746 14.0046 28.8462 16.5 28.8462Z" fill="#BFC8D0"/>
<path id="bg" d="M28.5 16C28.5 22.6274 23.1274 28 16.5 28C13.9722 28 11.6269 27.2184 9.69266 25.8837L5.59091 26.9091L6.66576 22.8784C5.30092 20.9307 4.5 18.5589 4.5 16C4.5 9.37258 9.87258 4 16.5 4C23.1274 4 28.5 9.37258 28.5 16Z" fill="url(#paint0_linear_14_237)"/>
<path id="border_2" fill-rule="evenodd" clip-rule="evenodd" d="M16.5 30C24.232 30 30.5 23.732 30.5 16C30.5 8.26801 24.232 2 16.5 2C8.76801 2 2.5 8.26801 2.5 16C2.5 18.5109 3.161 20.8674 4.31847 22.905L2.5 30L9.81486 28.3038C11.8014 29.3854 14.0789 30 16.5 30ZM16.5 27.8462C23.0425 27.8462 28.3462 22.5425 28.3462 16C28.3462 9.45755 23.0425 4.15385 16.5 4.15385C9.95755 4.15385 4.65385 9.45755 4.65385 16C4.65385 18.5261 5.4445 20.8675 6.79184 22.7902L5.73077 26.7692L9.77993 25.7569C11.6894 27.0746 14.0046 27.8462 16.5 27.8462Z" fill="white"/>
<path id="phone" d="M13 9.50001C12.6672 8.83143 12.1565 8.89062 11.6407 8.89062C10.7188 8.89062 9.28125 9.9949 9.28125 12.0501C9.28125 13.7344 10.0234 15.5782 12.5244 18.3362C14.938 20.998 18.1094 22.3749 20.7422 22.3281C23.375 22.2812 23.9167 20.0156 23.9167 19.2504C23.9167 18.9113 23.7062 18.7421 23.5613 18.6961C22.6641 18.2656 21.0093 17.4633 20.6328 17.3125C20.2563 17.1618 20.0597 17.3657 19.9375 17.4766C19.5961 17.802 18.9193 18.7609 18.6875 18.9766C18.4558 19.1923 18.1103 19.0831 17.9665 19.0016C17.4374 18.7893 16.0029 18.1512 14.8595 17.0427C13.4453 15.6719 13.3623 15.2003 13.0959 14.7804C12.8828 14.4446 13.0392 14.2385 13.1172 14.1484C13.4219 13.7969 13.8426 13.2541 14.0313 12.9844C14.2199 12.7147 14.0702 12.3051 13.9803 12.0501C13.5938 10.9531 13.2663 10.0349 13 9.50001Z" fill="white"/>
</g>
<defs>
<linearGradient id="paint0_linear_14_237" x1="27" y1="7" x2="4.5" y2="28" gradientUnits="userSpaceOnUse">
<stop stop-color="#5BD066"/>
<stop offset="1" stop-color="#27B43E"/>
</linearGradient>
</defs>
</svg>
